<svg xmlns="http://www.w3.org/2000/svg" width="54" height="54" viewBox="0 0 54 54">
  <g fill="#FFFFFF" fill-rule="evenodd" transform="matrix(-1 0 0 1 54 0)">
    <path d="M17.146204 53.955574C18.5500107 53.6424179 20.1115646 53.3669471 21.6319752 52.9429016 30.4906101 50.4722214 37.415947 45.1227493 43.4562569 38.3499565 48.2809334 32.9402122 51.3709946 26.676218 52.9211541 19.6763344 53.9631387 14.971139 52.2005387 10.8923044 48.8985291 7.5915146 47.2987023 5.9922805 44.9705124 5.8242588 42.7803727 5.8300171 42.349949 5.8311486 41.7933999 6.4454179 41.5149842 6.9097505 40.5373383 8.5402494 39.679329 10.2424312 38.7300797 11.8908229 37.9711075 13.208797 37.1380425 14.4835868 36.3515282 15.7858567 35.5821801 17.0596995 35.5902138 17.8149848 36.6460991 18.857923 37.8486939 20.0457701 39.1898537 21.0910201 40.4465065 22.2253413 42.2649002 23.8667178 42.2822342 24.3326087 41.0831604 26.4854121 38.282486 31.513679 34.8038979 35.9358477 29.9695091 39.15237 28.4467621 40.1655154 26.8807754 41.120708 25.2857952 42.0147701 23.8626251 42.8125225 23.3061581 42.7084308 22.1971969 41.5076748 21.0016822 40.2131992 19.9188251 38.8130489 18.7097282 37.5323025 17.3111362 36.0508343 16.7340221 36.05928 15.0203733 37.0836827 12.4726219 38.6066968 9.9019794 40.0926205 7.3147935 41.5472371 5.2957992 42.6823956 5.1943845 43.0990407 5.4853467 45.3594548 6.1171941 50.2680852 9.7252921 52.0009114 13.7037782 53.3464581 14.7330894 53.6945801 15.864543 53.7385216 17.146204 53.955574L17.146204 53.955574zM6.0931616 26.2829113C6.3338733 15.3360538 14.3519993 6.4136405 25.4759712 6.0383792 29.3344555 5.9082155 29.3471069-.0922112 25.4759712.0383792 11.0520773.5249617.4069994 12.0105009.0931618 26.2829113.0080317 30.1543751 6.008213 30.1461239 6.0931616 26.2829113L6.0931616 26.2829113 6.0931616 26.2829113z"/>
    <path d="M16.4481125,26.2637424 C16.5601349,21.1157588 20.4555073,17.1058235 25.6218395,16.9400901 C29.4810562,16.8162898 29.4930877,10.8159036 25.6218395,10.9400911 C17.16115,11.2115049 10.6324024,17.7947578 10.4481125,26.2637424 C10.3638678,30.1352024 16.3640442,30.127037 16.4481125,26.2637424 L16.4481125,26.2637424 L16.4481125,26.2637424 Z"/>
  </g>
</svg>
