<svg xmlns="http://www.w3.org/2000/svg" width="622" height="517" viewBox="0 0 622 517">
  <g fill="#B6CE3A" fill-rule="evenodd">
    <circle cx="258.5" cy="258.5" r="258.5"/>
    <path d="M515.723,392.326 C495.463635,402.423749 487.225949,427.033002 497.323571,447.29243 C507.421194,467.551858 532.030396,475.789697 552.289887,465.692201 C572.549378,455.594705 580.78737,430.985554 570.69,410.726 C565.840991,400.996858 557.325657,393.59249 547.017315,390.141811 C536.708973,386.691132 525.452052,387.47681 515.723,392.326 L515.723,392.326 Z" opacity=".8"/>
    <path d="M595.02,396.019 C585.960943,400.587561 582.3095,411.626984 586.857634,420.696313 C591.405767,429.765643 602.436933,433.441956 611.516489,428.914273 C620.596046,424.38659 624.29721,413.363737 619.79,404.274 C617.624827,399.871033 613.785681,396.519238 609.130839,394.967937 C604.475997,393.416636 599.393649,393.795201 595.02,396.019 L595.02,396.019 Z" opacity=".6"/>
  </g>
</svg>
